<svg xmlns="http://www.w3.org/2000/svg" version="1.1" xmlns:xlink="http://www.w3.org/1999/xlink" xmlns:svgjs="http://svgjs.dev/svgjs" width="2000" height="1931" viewBox="0 0 2000 1931"><g transform="matrix(1,0,0,1,-0.958904109588957,-2.732159574467687)"><svg viewBox="0 0 146 141" data-background-color="#ffffff" preserveAspectRatio="xMidYMid meet" height="1931" width="2000" xmlns="http://www.w3.org/2000/svg" xmlns:xlink="http://www.w3.org/1999/xlink"><g id="tight-bounds" transform="matrix(1,0,0,1,0.06999999999999318,0.19949999999997203)"><svg viewBox="0 0 145.85956280898878 140.60052000000002" height="140.60052000000002" width="145.85956280898878"><g><svg viewBox="0 0 145.85956280898878 140.60052000000002" height="140.60052000000002" width="145.85956280898878"><g><svg viewBox="0 0 145.85956280898878 140.60052000000002" height="140.60052000000002" width="145.85956280898878"><g><path d="M0 140.601v-140.601h145.86v140.601z" fill="#ffffff" stroke="transparent" stroke-width="0" rx="0%" data-fill-palette-color="tertiary"></path><path d="M9.85 130.751v-120.901h126.16v120.901z" fill="#ffffff" stroke="transparent" stroke-width="0" data-fill-palette-color="tertiary"></path></g><g transform="matrix(1,0,0,1,19.69974,19.69974)" id="textblocktransform"><svg viewBox="0 0 106.46008280898879 101.20104000000002" height="101.20104000000002" width="106.46008280898879" id="textblock"><g><svg viewBox="0 0 106.46008280898879 101.20104000000002" height="101.20104000000002" width="106.46008280898879"><g transform="matrix(1,0,0,1,0,0)"><svg width="106.46008280898879" viewBox="2.85 -35.3 37.449999999999996 35.599999999999994" height="101.20104000000002" data-palette-color="url(#7944791a-cd89-48da-ae2d-95b9e6f90318)"></svg></g></svg></g></svg></g></svg></g><g></g></svg></g><defs></defs><mask id="9f20008f-b7dd-4e9e-bc71-00bd31a0312a"><g id="SvgjsG7158"><svg viewBox="0 0 145.85956280898878 140.60052000000002" height="140.60052000000002" width="145.85956280898878"><g><svg viewBox="0 0 145.85956280898878 140.60052000000002" height="140.60052000000002" width="145.85956280898878"><g><svg viewBox="0 0 145.85956280898878 140.60052000000002" height="140.60052000000002" width="145.85956280898878"><g><path d="M0 140.601v-140.601h145.86v140.601z" fill="black" stroke="transparent" stroke-width="0" rx="0%"></path><path d="M3.283 137.317v-134.034h139.293v134.034z" fill="white" stroke="transparent" stroke-width="0" rx="0%"></path><path d="M9.85 130.751v-120.901h126.16v120.901z" fill="black" stroke="transparent" stroke-width="0"></path></g><g transform="matrix(1,0,0,1,19.69974,19.69974)" id="SvgjsG7157"><svg viewBox="0 0 106.46008280898879 101.20104000000002" height="101.20104000000002" width="106.46008280898879" id="SvgjsSvg7156"><g><svg viewBox="0 0 106.46008280898879 101.20104000000002" height="101.20104000000002" width="106.46008280898879"><g transform="matrix(1,0,0,1,0,0)"><svg width="106.46008280898879" viewBox="2.85 -35.3 37.449999999999996 35.599999999999994" height="101.20104000000002" data-palette-color="url(#7944791a-cd89-48da-ae2d-95b9e6f90318)"><path d="M18.95 0.3L18.95 0.3Q10.75 0.3 6.8-4.03 2.85-8.35 2.85-17.5L2.85-17.5Q2.85-26.45 6.95-30.88 11.05-35.3 19.05-35.3L19.05-35.3Q20.75-35.3 22.35-35.05 23.95-34.8 25.25-34.4 26.55-34 27.4-33.5L27.4-33.5Q27.95-33.15 28.28-32.83 28.6-32.5 28.6-32.2L28.6-32.2Q28.6-31.9 28.48-31.48 28.35-31.05 28.13-30.63 27.9-30.2 27.63-29.93 27.35-29.65 27.05-29.65L27.05-29.65Q26.65-29.65 25.68-30.13 24.7-30.6 23.1-31.05 21.5-31.5 19.15-31.5L19.15-31.5Q15.15-31.5 12.55-30.05 9.95-28.6 8.68-25.5 7.4-22.4 7.4-17.45L7.4-17.45Q7.4-12.65 8.65-9.58 9.9-6.5 12.48-5 15.05-3.5 18.95-3.5L18.95-3.5Q20.9-3.5 22.43-3.85 23.95-4.2 25.08-4.63 26.2-5.05 26.9-5.4 27.6-5.75 27.85-5.75L27.85-5.75Q28.15-5.75 28.43-5.45 28.7-5.15 28.9-4.75 29.1-4.35 29.2-3.95 29.3-3.55 29.3-3.35L29.3-3.35Q29.3-2.9 28.88-2.48 28.45-2.05 27.7-1.65L27.7-1.65Q26.8-1.15 25.48-0.7 24.15-0.25 22.5 0.03 20.85 0.3 18.95 0.3ZM38.25 0.1L37.85 0.1Q36.75 0.1 36.27-0.2 35.8-0.5 35.8-1L35.8-1 35.8-34Q35.8-34.55 36.27-34.83 36.75-35.1 37.85-35.1L37.85-35.1 38.25-35.1Q39.4-35.1 39.85-34.83 40.3-34.55 40.3-34L40.3-34 40.3-1Q40.3-0.5 39.85-0.2 39.4 0.1 38.25 0.1L38.25 0.1Z" opacity="1" transform="matrix(1,0,0,1,0,0)" fill="white" class="wordmark-text-0" id="SvgjsPath7155"></path></svg></g></svg></g></svg></g></svg></g><g></g></svg></g><defs><mask></mask></defs></svg><rect width="145.85956280898878" height="140.60052000000002" fill="black" stroke="none" visibility="hidden"></rect></g></mask><linearGradient x1="0" x2="1" y1="0.548" y2="0.55" id="7944791a-cd89-48da-ae2d-95b9e6f90318"><stop stop-color="#ff6cab" offset="0"></stop><stop stop-color="#7366ff" offset="1"></stop></linearGradient><rect width="145.86" height="140.601" fill="url(#7944791a-cd89-48da-ae2d-95b9e6f90318)" mask="url(#9f20008f-b7dd-4e9e-bc71-00bd31a0312a)" data-fill-palette-color="quaternary"></rect></svg><rect width="145.85956280898878" height="140.60052000000002" fill="none" stroke="none" visibility="hidden"></rect></g></svg></g></svg>